<?xml version="1.0" encoding="UTF-8"?>
<svg version="1.1" xmlns="http://www.w3.org/2000/svg" width="1024" height="1024">
<path d="M0 0 C337.92 0 675.84 0 1024 0 C1024 337.92 1024 675.84 1024 1024 C686.08 1024 348.16 1024 0 1024 C0 686.08 0 348.16 0 0 Z " fill="#FEFEFE" transform="translate(0,0)"/>
<path d="M0 0 C16.08292329 -0.07049129 32.16579547 -0.1231826 48.24883652 -0.15543652 C55.71867833 -0.17081937 63.18842344 -0.19174172 70.65820312 -0.22631836 C77.17882875 -0.25648676 83.69938426 -0.2756371 90.22007775 -0.28226548 C93.66371119 -0.28613201 97.10714424 -0.29503252 100.55071259 -0.31719017 C120.18691943 -0.42938926 139.35451005 -0.02519662 158.0625 6.5625 C159.06071777 6.90619629 160.05893555 7.24989258 161.08740234 7.60400391 C181.85303426 15.02431813 199.24827677 26.76261875 215 42 C215.93714844 42.88558594 216.87429688 43.77117187 217.83984375 44.68359375 C233.32683207 59.64928092 244.93887126 78.14814374 255.09375 97.0234375 C255.92734795 98.56822029 255.92734795 98.56822029 256.77778625 100.14421082 C263.17098043 112.07155038 269.18486194 124.1853745 275.1875 136.3125 C277.38645762 140.74752163 279.58819133 145.18114992 281.79296875 149.61328125 C282.5865126 151.2087529 282.5865126 151.2087529 283.39608765 152.8364563 C287.44395369 160.94766735 291.63125449 168.97783467 295.88012695 176.98510742 C298.50971 181.94609725 301.01874693 186.96347851 303.5 192 C314.84291758 214.80810376 326.75726152 237.39459316 340.375 258.9375 C340.92124023 259.80608643 341.46748047 260.67467285 342.03027344 261.56958008 C347.20221377 269.62479131 353.08859172 277.07372229 359.5625 284.125 C363.73555067 288.67291793 363.73555067 288.67291793 365.6328125 291.01953125 C374.75116629 302.26855566 389.68980492 314.07291464 404 317 C402.756333 320.96986057 401.30885961 324.59593071 399.3828125 328.28125 C398.86485107 329.27592285 398.34688965 330.2705957 397.81323242 331.29541016 C397.25611572 332.3529248 396.69899902 333.41043945 396.125 334.5 C395.54274658 335.61294434 394.96049316 336.72588867 394.3605957 337.87255859 C390.24030993 345.72013717 386.00929752 353.50238133 381.73291016 361.265625 C377.34633873 369.27179502 373.16611973 377.37784587 369 385.5 C363.82758095 395.58326838 358.57411047 405.60758974 353.09692383 415.5300293 C350.43460397 420.35339156 347.84662806 425.20383277 345.328125 430.10375977 C341.79261652 436.95002373 338.22057399 443.26394917 333 449 C332.26265625 449.82886719 331.5253125 450.65773438 330.765625 451.51171875 C324.87447938 457.78747738 318.76388842 462.28555084 311 466 C310.10796875 466.43441406 309.2159375 466.86882812 308.296875 467.31640625 C294.51583638 472.71962768 274.3364511 472.5650239 260.57421875 467.1953125 C259.72472656 466.80085938 258.87523437 466.40640625 258 466 C257.11957031 465.62617187 256.23914063 465.25234375 255.33203125 464.8671875 C231.38084523 453.92428557 221.34059556 428.9335381 210.125 406.8125 C208.25442007 403.13058489 206.38179701 399.44971463 204.5078125 395.76953125 C204.04800995 394.86621063 203.5882074 393.96289001 203.11447144 393.03219604 C199.24048917 385.43716873 195.27881505 377.89035068 191.29541016 370.35229492 C188.0309828 364.17262615 184.82785754 357.96176279 181.625 351.75 C180.32351206 349.22885891 179.02129419 346.70809553 177.71875 344.1875 C177.39963654 343.56993835 177.08052307 342.95237671 176.7517395 342.31610107 C173.89231511 336.78558932 171.010896 331.2667292 168.125 325.75 C163.27671081 316.47666528 158.47637883 307.1790998 153.6875 297.875 C153.32729767 297.17522034 152.96709534 296.47544067 152.59597778 295.75445557 C151.86796274 294.34009959 151.13995065 292.92574208 150.41194153 291.51138306 C149.87158516 290.46160782 149.87158516 290.46160782 149.3203125 289.390625 C148.77977486 288.34048721 148.77977486 288.34048721 148.22831726 287.26913452 C144.51252151 280.05124863 140.79062549 272.83652516 137.0625 265.625 C136.59108078 264.71309906 136.59108078 264.71309906 136.11013794 263.78277588 C132.47658932 256.75677722 128.82295628 249.74229849 125.125 242.75 C120.60327993 234.19924356 116.17519139 225.60095957 111.75 217 C111.38464142 216.28990784 111.01928284 215.57981567 110.64285278 214.84820557 C110.27739349 214.13791199 109.9119342 213.42761841 109.53540039 212.69580078 C96.98482618 188.29993873 96.98482618 188.29993873 84.25 164 C79.05986762 154.1854895 74.00285726 144.30258253 68.93185425 134.4262085 C63.78856293 124.40977693 58.62211918 114.40654359 53.40234375 104.4296875 C49.45454628 96.88115167 45.5360214 89.3176351 41.625 81.75 C41.14963806 80.83021362 41.14963806 80.83021362 40.66467285 79.8918457 C40.34768433 79.27849365 40.0306958 78.6651416 39.70410156 78.03320312 C39.06446123 76.79556873 38.4248128 75.55793852 37.78515625 74.3203125 C37.46843964 73.70750427 37.15172302 73.09469604 36.82540894 72.46331787 C33.01271443 65.08775764 29.18746903 57.71870829 25.36230469 50.34960938 C22.13370421 44.12628554 18.91526179 37.89790553 15.70703125 31.6640625 C14.97844414 30.2491811 14.24984719 28.83430477 13.52124023 27.41943359 C12.12188945 24.70189272 10.72457391 21.98331843 9.32836914 19.26416016 C5.56912756 11.92577035 5.56912756 11.92577035 1.5390625 4.734375 C0 2 0 2 0 0 Z " fill="#012268" transform="translate(230,316)"/>
<path d="M0 0 C-1.60088726 5.45812148 -4.05530955 10.29429765 -6.65625 15.32421875 C-7.34889954 16.67553642 -7.34889954 16.67553642 -8.05554199 18.05415344 C-9.53306738 20.93398977 -11.01654737 23.81071327 -12.5 26.6875 C-13.46651337 28.57077496 -14.43266244 30.45423694 -15.3984375 32.33789062 C-20.3606357 42.00397708 -25.37440258 51.64137342 -30.44659424 61.25016785 C-34.08244335 68.14186725 -37.6603437 75.06237993 -41.21969604 81.99383545 C-43.03620648 85.53086821 -44.85617749 89.06612037 -46.67578125 92.6015625 C-47.04055069 93.3104361 -47.40532013 94.01930969 -47.78114319 94.74966431 C-55.53809215 109.82062378 -63.33050507 124.87330223 -71.24389648 139.86279297 C-74.6896082 146.39454171 -78.09672539 152.94605684 -81.5 159.5 C-85.46480676 167.13257211 -89.43573203 174.76172935 -93.4375 182.375 C-93.81390625 183.09236328 -94.1903125 183.80972656 -94.578125 184.54882812 C-96.61645757 188.4202195 -98.69287196 192.26758592 -100.80078125 196.1015625 C-104.2135676 202.34329087 -107.46930887 208.66342458 -110.71838379 214.99121094 C-112.48608236 218.4333181 -114.25853284 221.8729754 -116.03125 225.3125 C-116.55214203 226.32328613 -116.55214203 226.32328613 -117.08355713 227.35449219 C-120.1606144 233.32078182 -123.27686401 239.2657863 -126.41308594 245.20117188 C-129.62996124 251.28977576 -132.81781611 257.39319932 -136 263.5 C-137.51760149 266.40950022 -139.03555951 269.31881404 -140.55371094 272.22802734 C-141.48449373 274.01197531 -142.41486541 275.79613787 -143.34472656 277.58056641 C-149.38172881 289.15797139 -155.60709496 300.61518826 -162 312 C-165 312 -165 312 -167.05859375 310.0078125 C-176.03705907 299.12750478 -184.04637694 287.54109564 -190.80493164 275.15063477 C-191.90562582 273.16983496 -193.05766014 271.2405753 -194.25390625 269.31640625 C-202.01671329 256.76128823 -208.04299335 243.48600117 -214 230 C-214.32484375 229.28134766 -214.6496875 228.56269531 -214.984375 227.82226562 C-235.03905211 183.3141261 -241.18662255 126.28555992 -224 80 C-223.72639648 79.25878906 -223.45279297 78.51757812 -223.17089844 77.75390625 C-210.33362658 43.5812387 -186.44247838 13.59666605 -153 -2 C-139.17072491 -8.15579071 -124.85809301 -11.38354847 -110 -14 C-109.28312012 -14.13277344 -108.56624023 -14.26554687 -107.82763672 -14.40234375 C-72.80145521 -20.7271323 -32.08019214 -15.43790816 0 0 Z " fill="#05A7E4" transform="translate(798,319)"/>
<path d="M0 0 C0.495 0.99 0.495 0.99 1 2 C1.66 2.33 2.32 2.66 3 3 C-14.96546085 38.01767255 -14.96546085 38.01767255 -21.14624023 49.66772461 C-23.89217628 54.85866417 -26.58884288 60.07403456 -29.2734375 65.296875 C-29.65521652 66.0394455 -30.03699554 66.78201599 -30.43034363 67.54708862 C-32.35667553 71.29518121 -34.28051825 75.04452982 -36.20141602 78.79541016 C-36.91418547 80.1839397 -37.62699307 81.57244966 -38.33984375 82.9609375 C-38.82673172 83.91441071 -38.82673172 83.91441071 -39.32345581 84.887146 C-41.09608637 88.33604142 -42.89145373 91.74319724 -45 95 C-45.33 95 -45.66 95 -46 95 C-46.495 92.03 -46.495 92.03 -47 89 C-45.02 88.505 -45.02 88.505 -43 88 C-42.896875 87.071875 -42.79375 86.14375 -42.6875 85.1875 C-41.95009417 81.76861841 -41.38614007 81.28671757 -39 79 C-38.64386903 77.33805547 -38.30791692 75.671549 -38 74 C-37.01 73.505 -37.01 73.505 -36 73 C-35.67 72.01 -35.34 71.02 -35 70 C-34.34 70 -33.68 70 -33 70 C-33 68.02 -33 66.04 -33 64 C-32.01 64 -31.02 64 -30 64 C-30 62.02 -30 60.04 -30 58 C-29.34 58 -28.68 58 -28 58 C-27.75765625 57.26394531 -27.5153125 56.52789062 -27.265625 55.76953125 C-25.42206337 50.40193065 -23.73365081 46.33585255 -20 42 C-18.859577 39.70459541 -17.93725313 37.38999549 -17 35 C-17.66 35 -18.32 35 -19 35 C-18.34 33.68 -17.68 32.36 -17 31 C-16.01 31.66 -15.02 32.32 -14 33 C-13.731875 32.175 -13.46375 31.35 -13.1875 30.5 C-9.88888889 20.77777778 -9.88888889 20.77777778 -8 17 C-7.34 17 -6.68 17 -6 17 C-5.34 14.69 -4.68 12.38 -4 10 C-3.34 10 -2.68 10 -2 10 C-1.34 6.7 -0.68 3.4 0 0 Z " fill="#28A3D1" transform="translate(789,330)"/>
<path d="M0 0 C39.27 0 78.54 0 119 0 C119 0.33 119 0.66 119 1 C118.42554736 1.00238835 117.85109472 1.00477671 117.25923443 1.00723743 C103.28819427 1.06634685 89.31732933 1.14206032 75.34647655 1.23571491 C68.59029384 1.28070042 61.83416417 1.32010858 55.07788086 1.34643555 C48.56147602 1.37184339 42.04527623 1.41272945 35.52901649 1.46318626 C33.03908523 1.4799111 30.54911319 1.49139025 28.05913353 1.49761391 C24.57977807 1.50719388 21.1010328 1.53518037 17.62182617 1.56762695 C16.58532928 1.56619186 15.5488324 1.56475677 14.48092651 1.5632782 C13.53441727 1.57581635 12.58790802 1.58835449 11.61271667 1.60127258 C10.78955554 1.60588155 9.96639441 1.61049051 9.11828899 1.61523914 C6.53392912 2.08465598 5.64093028 3.0023997 4 5 C4.99 5.33 5.98 5.66 7 6 C6.67 6.99 6.34 7.98 6 9 C3 8 3 8 1.3125 5.0625 C0 2 0 2 0 0 Z " fill="#0B1E58" transform="translate(230,316)"/>
<path d="M0 0 C0.33 0.66 0.66 1.32 1 2 C-0.32081535 4.63235097 -1.70592516 7.14664547 -3.1875 9.6875 C-7.50107769 17.24998099 -11.61570287 24.8968648 -15.625 32.625 C-16.15762451 33.65069092 -16.69024902 34.67638184 -17.23901367 35.7331543 C-18.49467139 38.15441188 -19.7484486 40.57661798 -21 43 C-22.33623836 38.99128491 -21.38227053 36.93947102 -20 33 C-18.5 30.5625 -18.5 30.5625 -17 29 C-16.34 29 -15.68 29 -15 29 C-14.24758891 25.34543185 -13.59950296 21.68266103 -13 18 C-12.01 18.33 -11.02 18.66 -10 19 C-10 17.02 -10 15.04 -10 13 C-10.66 12.67 -11.32 12.34 -12 12 C-12 10.68 -12 9.36 -12 8 C-11.01 8 -10.02 8 -9 8 C-8.62875 7.0409375 -8.62875 7.0409375 -8.25 6.0625 C-7 4 -7 4 -5.0625 3.4375 C-4.381875 3.293125 -3.70125 3.14875 -3 3 C-1.26973898 1.52109931 -1.26973898 1.52109931 0 0 Z " fill="#0CA5E1" transform="translate(670,564)"/>
<path d="M0 0 C0 0.66 0 1.32 0 2 C-3.96 3.65 -7.92 5.3 -12 7 C-12 8.65 -12 10.3 -12 12 C-16.10810811 16 -16.10810811 16 -19 16 C-19 15.01 -19 14.02 -19 13 C-19.33 13 -19.66 13 -20 13 C-19.67 14.65 -19.34 16.3 -19 18 C-20.32 18.33 -21.64 18.66 -23 19 C-23.33 18.01 -23.66 17.02 -24 16 C-25.32 16 -26.64 16 -28 16 C-28 16.66 -28 17.32 -28 18 C-29.98 18.66 -31.96 19.32 -34 20 C-26.78397316 12.06237048 -11.29224792 0 0 0 Z " fill="#16A9D9" transform="translate(652,315)"/>
<path d="M0 0 C1.21558594 -0.00386719 2.43117188 -0.00773437 3.68359375 -0.01171875 C10.56038261 -0.00430042 17.30055715 0.25987427 24.125 1.125 C24.125 1.455 24.125 1.785 24.125 2.125 C22.85793213 2.15005615 21.59086426 2.1751123 20.28540039 2.20092773 C15.60202221 2.29481996 10.9187987 2.39508435 6.2355957 2.49731445 C4.20535896 2.54073241 2.17508408 2.58240226 0.14477539 2.62231445 C-2.76688151 2.67985146 -5.67834514 2.74359278 -8.58984375 2.80859375 C-9.96014992 2.83366249 -9.96014992 2.83366249 -11.35813904 2.85923767 C-15.44289316 2.5480685 -15.44289316 2.5480685 -18.875 4.125 C-22.1827841 4.36288858 -25.48324645 4.52040297 -28.796875 4.64257812 C-32.94259765 4.84452969 -36.07789684 5.53060087 -39.875 7.125 C-42.55078125 7.3203125 -42.55078125 7.3203125 -45.1875 7.25 C-46.51201172 7.22292969 -46.51201172 7.22292969 -47.86328125 7.1953125 C-48.52714844 7.17210937 -49.19101562 7.14890625 -49.875 7.125 C-46.7760214 5.38421012 -44.01610861 4.65503229 -40.515625 4.08984375 C-39.48179687 3.92033203 -38.44796875 3.75082031 -37.3828125 3.57617188 C-36.30773437 3.40666016 -35.23265625 3.23714844 -34.125 3.0625 C-33.06539062 2.88912109 -32.00578125 2.71574219 -30.9140625 2.53710938 C-27.90338694 2.04964888 -24.89015209 1.58383896 -21.875 1.125 C-19.94527344 0.82142578 -19.94527344 0.82142578 -17.9765625 0.51171875 C-12.01656741 -0.19467963 -5.99141774 -0.0189402 0 0 Z " fill="#36AAD6" transform="translate(717.875,302.875)"/>
<path d="M0 0 C3.53191322 3.43153914 6.7137505 6.97375062 9.8125 10.8125 C10.60269531 11.78832031 11.39289062 12.76414062 12.20703125 13.76953125 C13.09455078 14.87361328 13.09455078 14.87361328 14 16 C14.928125 14.824375 14.928125 14.824375 15.875 13.625 C18 11 18 11 20 9 C19.51421457 12.12290635 19.0013988 14.99580359 18 18 C17.34 18.33 16.68 18.66 16 19 C14.9590934 20.64142963 13.95495674 22.30712215 13 24 C12.67 23.34 12.34 22.68 12 22 C12.9375 19.875 12.9375 19.875 14 18 C13.40832031 17.90203125 12.81664062 17.8040625 12.20703125 17.703125 C7.12957861 16.74230199 3.82486256 15.7014799 0 12 C0.66 11.34 1.32 10.68 2 10 C1.80014339 7.53950765 1.80014339 7.53950765 1.125 4.875 C0.92132812 3.96492187 0.71765625 3.05484375 0.5078125 2.1171875 C0.34023438 1.41851563 0.17265625 0.71984375 0 0 Z " fill="#E6ECF4" transform="translate(620,615)"/>
<path d="M0 0 C0.33 0 0.66 0 1 0 C0.85696335 2.16685309 0.71042449 4.3334751 0.5625 6.5 C0.48128906 7.7065625 0.40007813 8.913125 0.31640625 10.15625 C0.10805732 12.68730372 -0.16645788 15.21391098 -0.51147461 17.72998047 C-1.03616524 21.87579184 -1.14484809 25.98867256 -1.1328125 30.1640625 C-1.13376923 30.91859711 -1.13472595 31.67313171 -1.13571167 32.45053101 C-1.13638775 34.03879887 -1.1345737 35.62706959 -1.13037109 37.21533203 C-1.12506008 39.59804794 -1.13031229 41.98057145 -1.13671875 44.36328125 C-1.14032821 53.62442162 -0.81880794 62.76929275 0 72 C-0.66 71.67 -1.32 71.34 -2 71 C-4.41706903 59.66400261 -4.2525174 48.02709132 -4.125 36.5 C-4.11493124 34.88672442 -4.1058124 33.27344263 -4.09765625 31.66015625 C-4.07599453 27.77327895 -4.04168915 23.88671193 -4 20 C-3.34 20 -2.68 20 -2 20 C-1.93941406 18.89140625 -1.87882813 17.7828125 -1.81640625 16.640625 C-1.73197049 15.1770718 -1.64732401 13.71353075 -1.5625 12.25 C-1.50352539 11.15558594 -1.50352539 11.15558594 -1.44335938 10.0390625 C-1.23852902 6.5727027 -0.9147998 3.34666974 0 0 Z " fill="#CBF6FD" transform="translate(567,418)"/>
<path d="M0 0 C0.66 0 1.32 0 2 0 C2.16435547 1.10794922 2.16435547 1.10794922 2.33203125 2.23828125 C3.40499622 13.86939916 3.40499622 13.86939916 8 24 C8.103125 25.134375 8.20625 26.26875 8.3125 27.4375 C8.6528125 29.2009375 8.6528125 29.2009375 9 31 C10.97533095 32.25640084 10.97533095 32.25640084 13 33 C12.98839844 33.58007812 12.97679687 34.16015625 12.96484375 34.7578125 C12.91237826 39.2998246 13.08248937 43.52713569 14 48 C11.87446099 45.87446099 11.39435938 44.70852324 10.44921875 41.9140625 C10.16506104 41.07488281 9.88090332 40.23570312 9.58813477 39.37109375 C9.29092529 38.46488281 8.99371582 37.55867187 8.6875 36.625 C8.38062256 35.69558594 8.07374512 34.76617188 7.75756836 33.80859375 C5.63706618 27.25983787 3.74801196 20.67360698 2.0625 14 C1.85133545 13.17064941 1.6401709 12.34129883 1.42260742 11.48681641 C0.47261277 7.58437553 -0.26942039 4.04947011 0 0 Z " fill="#25A3D0" transform="translate(569,496)"/>
<path d="M0 0 C1.98 0 3.96 0 6 0 C7.46885619 5.23280018 8.1032113 9.5298011 8 15 C8.28520405 16.67557379 8.59955696 18.34817245 9 20 C6.60231063 17.02041525 4.94916891 14.04402081 3.375 10.5625 C2.73691406 9.17224609 2.73691406 9.17224609 2.0859375 7.75390625 C1.06173549 5.15655943 0.44899617 2.74885434 0 0 Z " fill="#15A5DA" transform="translate(583,544)"/>
<path d="M0 0 C0 0.66 0 1.32 0 2 C-3.96 3.65 -7.92 5.3 -12 7 C-12 8.65 -12 10.3 -12 12 C-16.10810811 16 -16.10810811 16 -19 16 C-19 15.01 -19 14.02 -19 13 C-18.01 12.67 -17.02 12.34 -16 12 C-16 11.01 -16 10.02 -16 9 C-16.66 9 -17.32 9 -18 9 C-18 9.66 -18 10.32 -18 11 C-19.32 10.67 -20.64 10.34 -22 10 C-19.60588163 8.70506805 -17.2098212 7.41397828 -14.8125 6.125 C-14.13896484 5.76019531 -13.46542969 5.39539063 -12.77148438 5.01953125 C-3.41690341 0 -3.41690341 0 0 0 Z " fill="#1AA4DD" transform="translate(652,315)"/>
<path d="M0 0 C1.1446875 1.175625 1.1446875 1.175625 2.3125 2.375 C4.90891805 5.07257717 4.90891805 5.07257717 8 7 C9.32 4.69 10.64 2.38 12 0 C12.99928333 2.698065 13.03624754 3.88010429 12.1875 6.6875 C11 9 11 9 9 10 C7.9590934 11.64142963 6.95495674 13.30712215 6 15 C5.67 14.34 5.34 13.68 5 13 C5.9375 10.875 5.9375 10.875 7 9 C4.69 8.67 2.38 8.34 0 8 C0.99 7.67 1.98 7.34 3 7 C3 6.01 3 5.02 3 4 C1.68 3.67 0.36 3.34 -1 3 C-0.67 2.01 -0.34 1.02 0 0 Z " fill="#C7E2EF" transform="translate(627,624)"/>
<path d="M0 0 C0.99 0 1.98 0 3 0 C1.30916337 6.05034312 -1.6828924 11.36414871 -4.625 16.875 C-5.3984375 18.33679688 -5.3984375 18.33679688 -6.1875 19.828125 C-7.45428286 22.22093706 -8.72521318 24.61144536 -10 27 C-11.10102197 23.69693408 -10.95067299 22.28414305 -10 19 C-9.34 18.67 -8.68 18.34 -8 18 C-6.94647157 15.69034152 -5.94280904 13.3570226 -5 11 C-4.34 11 -3.68 11 -3 11 C-3 9.68 -3 8.36 -3 7 C-2.34 7 -1.68 7 -1 7 C-0.67 4.69 -0.34 2.38 0 0 Z " fill="#28A3D2" transform="translate(740,425)"/>
<path d="M0 0 C0.59498291 0.0707373 1.18996582 0.14147461 1.80297852 0.21435547 C8.20166042 0.92165999 14.50302241 1.15251737 20.9375 1.125 C21.86884766 1.12886719 22.80019531 1.13273438 23.75976562 1.13671875 C24.65244141 1.13542969 25.54511719 1.13414062 26.46484375 1.1328125 C27.265271 1.13168457 28.06569824 1.13055664 28.89038086 1.12939453 C31.19187076 1.07912963 31.19187076 1.07912963 34 0 C35.56118428 -0.06740865 37.1250252 -0.08514456 38.6875 -0.0625 C39.89986328 -0.04896484 39.89986328 -0.04896484 41.13671875 -0.03515625 C42.05904297 -0.01775391 42.05904297 -0.01775391 43 0 C36.65520482 4.22986345 29.05228074 3.1835763 21.6875 3.1875 C20.48931641 3.19974609 19.29113281 3.21199219 18.05664062 3.22460938 C11.67529625 3.23515705 6.09913412 2.91687072 0 1 C0 0.67 0 0.34 0 0 Z " fill="#2D3E72" transform="translate(493,783)"/>
<path d="M0 0 C0.33 0 0.66 0 1 0 C1.50610724 6.07328688 0.04157942 9.77228537 -3 15 C-3.66 15 -4.32 15 -5 15 C-5.66 18.3 -6.32 21.6 -7 25 C-7.66 25 -8.32 25 -9 25 C-8.40414792 19.2306386 -6.23012403 14.38338464 -3.9375 9.125 C-3.56044922 8.24585938 -3.18339844 7.36671875 -2.79492188 6.4609375 C-1.86913928 4.30468436 -0.93738089 2.15123021 0 0 Z " fill="#2DA8D4" transform="translate(581,382)"/>
<path d="M0 0 C0.99 0 1.98 0 3 0 C2.44733314 4.53019353 0.66797015 7.43824914 -1.875 11.1875 C-2.92300781 12.75564453 -2.92300781 12.75564453 -3.9921875 14.35546875 C-6 17 -6 17 -9 19 C-8.67 16.69 -8.34 14.38 -8 12 C-7.01 12 -6.02 12 -5 12 C-5 11.34 -5 10.68 -5 10 C-4.34 10 -3.68 10 -3 10 C-3 8.68 -3 7.36 -3 6 C-2.34 6 -1.68 6 -1 6 C-0.67 4.02 -0.34 2.04 0 0 Z " fill="#182D62" transform="translate(571,746)"/>
<path d="M0 0 C0.33 0 0.66 0 1 0 C1 1.65 1 3.3 1 5 C0.34 5 -0.32 5 -1 5 C-1.12375 5.86625 -1.2475 6.7325 -1.375 7.625 C-2.44811777 13.41983596 -3.57519139 17.00339868 -8 21 C-8.33 21.66 -8.66 22.32 -9 23 C-9.66 23 -10.32 23 -11 23 C-9.44347945 17.6462535 -7.0182491 12.99849053 -4.375 8.125 C-3.95476563 7.34125 -3.53453125 6.5575 -3.1015625 5.75 C-2.0718978 3.83107943 -1.03652433 1.91522397 0 0 Z " fill="#D7F7FC" transform="translate(748,416)"/>
<path d="M0 0 C0.66 0.33 1.32 0.66 2 1 C-2.29 9.25 -6.58 17.5 -11 26 C-12.33623836 21.99128491 -11.38227053 19.93947102 -10 16 C-8.5 13.5625 -8.5 13.5625 -7 12 C-6.34 12 -5.68 12 -5 12 C-4.24758891 8.34543185 -3.59950296 4.68266103 -3 1 C-2.01 1.33 -1.02 1.66 0 2 C0 1.34 0 0.68 0 0 Z " fill="#28A8D8" transform="translate(660,581)"/>
<path d="M0 0 C0.66 0.33 1.32 0.66 2 1 C0.05106191 4.81737464 -1.91069748 8.62801171 -3.875 12.4375 C-4.43058594 13.52611328 -4.98617187 14.61472656 -5.55859375 15.73632812 C-6.36103516 17.28803711 -6.36103516 17.28803711 -7.1796875 18.87109375 C-7.67194824 19.82943115 -8.16420898 20.78776855 -8.67138672 21.77514648 C-10 24 -10 24 -12 25 C-12.33 23.35 -12.66 21.7 -13 20 C-12.01 19.67 -11.02 19.34 -10 19 C-9.08478813 16.99939943 -9.08478813 16.99939943 -8.5 14.625 C-7.55390059 11.16723191 -6.61716288 9.43225463 -4 7 C-3.835 6.34 -3.67 5.68 -3.5 5 C-2.89297724 2.57190897 -1.86053293 1.61785472 0 0 Z " fill="#25A3D6" transform="translate(688,528)"/>
<path d="M0 0 C2.00788775 3.01183162 2.7665271 5.23227016 3.7265625 8.69140625 C4.0359375 9.80064453 4.3453125 10.90988281 4.6640625 12.05273438 C4.98117187 13.21095703 5.29828125 14.36917969 5.625 15.5625 C5.94984375 16.72458984 6.2746875 17.88667969 6.609375 19.08398438 C9 27.71735491 9 27.71735491 9 30 C8.34 30 7.68 30 7 30 C4.13035626 23.74827614 2.48862774 18.90352555 3 12 C2.34 12 1.68 12 1 12 C0.67 8.04 0.34 4.08 0 0 Z " fill="#C6F2FB" transform="translate(570,506)"/>
<path d="M0 0 C5.80826033 0.51743967 10.52869268 1.71488477 15.875 4 C16.86886719 4.40992188 16.86886719 4.40992188 17.8828125 4.828125 C20.28795396 5.82537878 22.67057548 6.83528774 25 8 C24.34 9.98 23.68 11.96 23 14 C22 11 22 11 22 9 C16.04910045 6.39173339 10.48041896 4.49803368 4.03125 3.58984375 C2 3 2 3 0 0 Z " fill="#24A2D0" transform="translate(773,311)"/>
<path d="M0 0 C3.3133979 1.10446597 3.67066521 1.5958183 5.5 4.375 C7.15331227 6.86556655 8.85210491 8.92157861 11 11 C14 14.66666667 14 14.66666667 14 17 C14.99 17 15.98 17 17 17 C16.67 17.99 16.34 18.98 16 20 C9.71459556 13.90506236 4.06627612 7.80725015 0 0 Z " fill="#35A5CC" transform="translate(619,612)"/>
<path d="M0 0 C3.53600465 1.91135386 5.78972846 3.62642766 8 7 C6 9 6 9 3.5625 9.4375 C1 9 1 9 -0.8125 6.625 C-2 4 -2 4 -2 2 C-1.34 2 -0.68 2 0 2 C0 1.34 0 0.68 0 0 Z M1 3 C1.33 3.99 1.66 4.98 2 6 C2 5.01 2 4.02 2 3 C1.67 3 1.34 3 1 3 Z " fill="#112B6A" transform="translate(434,349)"/>
<path d="M0 0 C-1.44950455 3.7910119 -3.15172566 7.3874638 -5 11 C-5.66 11 -6.32 11 -7 11 C-7.8125 8.3125 -7.8125 8.3125 -8 5 C-4.08695652 0 -4.08695652 0 0 0 Z " fill="#0F2665" transform="translate(585,726)"/>
<path d="M0 0 C0.66 0 1.32 0 2 0 C0.51991304 5.00113594 -1.6318336 9.32915597 -4.125 13.875 C-4.49753906 14.56335938 -4.87007812 15.25171875 -5.25390625 15.9609375 C-6.16499526 17.64294798 -7.08190315 19.32180436 -8 21 C-9.11665191 17.28574649 -8.79401325 15.49360475 -7 12 C-6.34 11.67 -5.68 11.34 -5 11 C-4.690625 9.845 -4.38125 8.69 -4.0625 7.5 C-3.711875 6.345 -3.36125 5.19 -3 4 C-2.01 3.67 -1.02 3.34 0 3 C0 2.01 0 1.02 0 0 Z " fill="#2DA5D2" transform="translate(723,460)"/>
<path d="M0 0 C3.67882073 3.28466137 5.75150101 6.66360908 8 11 C8 11.66 8 12.32 8 13 C6.0625 12.625 6.0625 12.625 4 12 C3.67 11.34 3.34 10.68 3 10 C2.01 10 1.02 10 0 10 C0 6.66666667 0 3.33333333 0 0 Z " fill="#1C3267" transform="translate(474,396)"/>
<path d="M0 0 C1.1577506 3.47325181 1.06866652 6.36067448 1 10 C0.34 10 -0.32 10 -1 10 C-1 9.01 -1 8.02 -1 7 C-1.66 7 -2.32 7 -3 7 C-3.433125 8.6396875 -3.433125 8.6396875 -3.875 10.3125 C-5 14 -5 14 -7 17 C-7.66 17 -8.32 17 -9 17 C-7.68925635 12.53817564 -5.92933989 9.00381243 -3.375 5.125 C-2.74335937 4.15820312 -2.11171875 3.19140625 -1.4609375 2.1953125 C-0.73777344 1.10863281 -0.73777344 1.10863281 0 0 Z " fill="#39ACD2" transform="translate(591,365)"/>
<path d="M0 0 C0.66 0 1.32 0 2 0 C1.30708088 4.43981513 -0.24234996 8.42828516 -1.9375 12.5625 C-2.20240234 13.22185547 -2.46730469 13.88121094 -2.74023438 14.56054688 C-4.04159824 17.77359165 -5.3839123 20.93177553 -7 24 C-6.69156849 15.20970201 -3.43222587 7.96654261 0 0 Z " fill="#D0F8FE" transform="translate(578,384)"/>
<path d="M0 0 C1.508013 0.92455559 3.00624917 1.8650747 4.5 2.8125 C5.75296875 3.59560547 5.75296875 3.59560547 7.03125 4.39453125 C7.6809375 4.92433594 8.330625 5.45414062 9 6 C9 6.99 9 7.98 9 9 C6.36 9 3.72 9 1 9 C1.20625 8.443125 1.4125 7.88625 1.625 7.3125 C2.10676643 4.34160702 1.18055547 2.71707996 0 0 Z " fill="#122D66" transform="translate(424,341)"/>
<path d="M0 0 C0.33 0 0.66 0 1 0 C1.125 2.875 1.125 2.875 1 6 C0.34 6.66 -0.32 7.32 -1 8 C-1.309375 8.78375 -1.61875 9.5675 -1.9375 10.375 C-3.00052194 13.00128951 -4.12188179 14.88711701 -6 17 C-6.66 17 -7.32 17 -8 17 C-6.3341708 10.83643195 -3.12194714 5.51740344 0 0 Z " fill="#CFF7FD" transform="translate(790,335)"/>
<path d="M0 0 C0.33 0.99 0.66 1.98 1 3 C1.66 3 2.32 3 3 3 C3.33 2.34 3.66 1.68 4 1 C5.32 1 6.64 1 8 1 C7.38722388 3.96175123 6.74627478 5.38058783 5 8 C2.69 6.35 0.38 4.7 -2 3 C-1.34 2.01 -0.68 1.02 0 0 Z " fill="#ECF2F7" transform="translate(609,616)"/>
<path d="M0 0 C1.32 0.33 2.64 0.66 4 1 C2.19117843 3.33627037 0.37818954 5.66907762 -1.4375 8 C-1.95376953 8.66773438 -2.47003906 9.33546875 -3.00195312 10.0234375 C-4.31130046 11.70077134 -5.65312323 13.35264994 -7 15 C-7.33 15 -7.66 15 -8 15 C-8 13.35 -8 11.7 -8 10 C-6.68 9.67 -5.36 9.34 -4 9 C-3.896875 8.360625 -3.79375 7.72125 -3.6875 7.0625 C-3.460625 6.381875 -3.23375 5.70125 -3 5 C-2.01 4.67 -1.02 4.34 0 4 C0 2.68 0 1.36 0 0 Z " fill="#D9F9FE" transform="translate(604,343)"/>
<path d="M0 0 C0.66 0 1.32 0 2 0 C0.67810311 4.68672532 -1.35803543 8.61253385 -3.7578125 12.80859375 C-5.27712395 15.48888848 -6.65087853 18.23075067 -8 21 C-9.13643966 17.59068103 -8.86747764 16.99664544 -7.5625 13.8125 C-7.27503906 13.09707031 -6.98757813 12.38164063 -6.69140625 11.64453125 C-6.34916016 10.83048828 -6.34916016 10.83048828 -6 10 C-5.34 10 -4.68 10 -4 10 C-4 9.01 -4 8.02 -4 7 C-3.34 7 -2.68 7 -2 7 C-1.855625 6.030625 -1.71125 5.06125 -1.5625 4.0625 C-1 1 -1 1 0 0 Z " fill="#2BA5D2" transform="translate(699,506)"/>
<path d="M0 0 C3.42771135 3.9173844 8 9.52151811 8 15 C7.01 15.33 6.02 15.66 5 16 C4.26686896 14.03387584 3.53375722 12.06774448 2.80078125 10.1015625 C2.17160236 8.45035157 1.4998218 6.81536743 0.8125 5.1875 C0 3 0 3 0 0 Z " fill="#1E3367" transform="translate(516,476)"/>
<path d="M0 0 C0.33 0.66 0.66 1.32 1 2 C1.66 2 2.32 2 3 2 C4.32 5.3 5.64 8.6 7 12 C6.34 12.66 5.68 13.32 5 14 C3.96692229 12.23628182 2.94887951 10.46374967 1.9375 8.6875 C1.36902344 7.70136719 0.80054688 6.71523438 0.21484375 5.69921875 C-1 3 -1 3 0 0 Z " fill="#122A5F" transform="translate(275,400)"/>
<path d="M0 0 C0.33 0 0.66 0 1 0 C0.53411505 5.70709064 -0.93757784 9.15939723 -4 14 C-4.33 14 -4.66 14 -5 14 C-5.33 12.02 -5.66 10.04 -6 8 C-4.68 7.67 -3.36 7.34 -2 7 C-1.855625 6.030625 -1.71125 5.06125 -1.5625 4.0625 C-1 1 -1 1 0 0 Z " fill="#1DA8D4" transform="translate(748,411)"/>
<path d="M0 0 C0.33 0 0.66 0 1 0 C1.33 2.97 1.66 5.94 2 9 C-2.75 12 -2.75 12 -5 12 C-3.68938409 7.76570244 -2.05643741 3.92592596 0 0 Z " fill="#D7F7FB" transform="translate(796,323)"/>
<path d="M0 0 C0.66 1.32 1.32 2.64 2 4 C2.66 4.33 3.32 4.66 4 5 C1.69 9.29 -0.62 13.58 -3 18 C-4.07349791 13.70600835 -3.79682816 12.80504787 -2 9 C-1.34 9 -0.68 9 0 9 C0 6.03 0 3.06 0 0 Z " fill="#142C65" transform="translate(626,638)"/>
<path d="M0 0 C0.66 0 1.32 0 2 0 C2 0.66 2 1.32 2 2 C2.66 2 3.32 2 4 2 C4.45375 2.969375 4.9075 3.93875 5.375 4.9375 C6.65786221 8.07079582 6.65786221 8.07079582 9 9 C9.8515625 11.06640625 9.8515625 11.06640625 10.625 13.5625 C10.88539063 14.38878906 11.14578125 15.21507812 11.4140625 16.06640625 C11.60742188 16.70449219 11.80078125 17.34257813 12 18 C9.03691019 15.22931862 6.91415338 12.50179219 4.875 9 C4.37742187 8.154375 3.87984375 7.30875 3.3671875 6.4375 C2.1782643 4.31781978 1.06228814 2.18527847 0 0 Z " fill="#2BA5CF" transform="translate(607,593)"/>
<path d="M0 0 C2.475 0.495 2.475 0.495 5 1 C4.67 1.99 4.34 2.98 4 4 C5.1490712 5.2981424 5.1490712 5.2981424 8 6 C7.67 7.98 7.34 9.96 7 12 C3.71534104 9.20803989 1.98678042 5.76803183 0 2 C0 1.34 0 0.68 0 0 Z " fill="#122F66" transform="translate(287,426)"/>
<path d="M0 0 C6.02677947 -0.32873343 11.56962527 0.1125141 17 3 C17.33 3.99 17.66 4.98 18 6 C17.05640625 5.70996094 17.05640625 5.70996094 16.09375 5.4140625 C10.75783615 3.7907875 5.42240732 2.30539435 0 1 C0 0.67 0 0.34 0 0 Z " fill="#BFF1FB" transform="translate(770,309)"/>
<path d="M0 0 C2.31 0.33 4.62 0.66 7 1 C6.01 2.32 5.02 3.64 4 5 C4.99 5.33 5.98 5.66 7 6 C6.67 6.99 6.34 7.98 6 9 C3 8 3 8 1.3125 5.0625 C0 2 0 2 0 0 Z " fill="#122D5F" transform="translate(230,316)"/>
<path d="M0 0 C1.79378179 2.69067269 2.97313958 5.08578257 4.1875 8.0625 C4.55230469 8.94035156 4.91710937 9.81820312 5.29296875 10.72265625 C6 13 6 13 5 15 C3.046875 13.88671875 3.046875 13.88671875 1 12 C0.390625 9.08203125 0.390625 9.08203125 0.25 5.8125 C0.19328125 4.72582031 0.1365625 3.63914062 0.078125 2.51953125 C0.05234375 1.68808594 0.0265625 0.85664062 0 0 Z " fill="#CBF4FB" transform="translate(579,536)"/>
<path d="M0 0 C0.66 0.33 1.32 0.66 2 1 C-0.31 5.29 -2.62 9.58 -5 14 C-7 10 -7 10 -7 8 C-6.01 8 -5.02 8 -4 8 C-3.71125 7.236875 -3.4225 6.47375 -3.125 5.6875 C-2 3 -2 3 0 0 Z " fill="#2BA6D3" transform="translate(712,482)"/>
<path d="M0 0 C0.66 0.33 1.32 0.66 2 1 C-0.64 5.95 -3.28 10.9 -6 16 C-6.33 14.68 -6.66 13.36 -7 12 C-6.34 11.01 -5.68 10.02 -5 9 C-4.61500109 7.34450469 -4.27206865 5.6777567 -4 4 C-3.01 4 -2.02 4 -1 4 C-0.67 2.68 -0.34 1.36 0 0 Z " fill="#2CA9D1" transform="translate(646,608)"/>
<path d="M0 0 C0.66 0 1.32 0 2 0 C3.65 2.97 5.3 5.94 7 9 C5.35 9 3.7 9 2 9 C1.34 6.03 0.68 3.06 0 0 Z " fill="#17316B" transform="translate(563,566)"/>
<path d="M0 0 C1 3 1 3 0.29296875 5.0078125 C-0.25423828 6.05582031 -0.25423828 6.05582031 -0.8125 7.125 C-1.34810547 8.18074219 -1.34810547 8.18074219 -1.89453125 9.2578125 C-3 11 -3 11 -5 12 C-5.66 11.34 -6.32 10.68 -7 10 C-3.535 5.05 -3.535 5.05 0 0 Z " fill="#24A7D1" transform="translate(599,354)"/>
<path d="M0 0 C5.94 1.485 5.94 1.485 12 3 C11.67 3.99 11.34 4.98 11 6 C7.45028204 5.39147692 4.23306391 4.61653196 1 3 C0.67 2.01 0.34 1.02 0 0 Z " fill="#173060" transform="translate(482,777)"/>
<path d="M0 0 C0.33 0 0.66 0 1 0 C2.34106208 6.46148093 2.34106208 6.46148093 0.8125 8.875 C-1.12945819 10.08035336 -2.75547595 10.6130131 -5 11 C-3.55049545 7.2089881 -1.84827434 3.6125362 0 0 Z " fill="#D6F9FC" transform="translate(691,525)"/>
<path d="M0 0 C0.33 1.32 0.66 2.64 1 4 C-2.32052768 6.33946269 -5.01532244 8.17707746 -9 9 C-8.06725891 7.87105124 -7.12859878 6.74699124 -6.1875 5.625 C-5.66542969 4.99851562 -5.14335938 4.37203125 -4.60546875 3.7265625 C-3 2 -3 2 0 0 Z " fill="#33AAD6" transform="translate(617,335)"/>
<path d="M0 0 C2.97 0.495 2.97 0.495 6 1 C6.66 2.98 7.32 4.96 8 7 C7.01 7.495 7.01 7.495 6 8 C5.67 6.35 5.34 4.7 5 3 C4.34 3 3.68 3 3 3 C3.66 4.32 4.32 5.64 5 7 C4.01 7.495 4.01 7.495 3 8 C0 2.25 0 2.25 0 0 Z " fill="#18316C" transform="translate(399,642)"/>
<path d="M0 0 C3.24732932 1.62366466 3.70155136 4.75387839 5 8 C4.34 8.66 3.68 9.32 3 10 C2.34 8.35 1.68 6.7 1 5 C0.01 5.33 -0.98 5.66 -2 6 C-1.125 1.125 -1.125 1.125 0 0 Z " fill="#172C6A" transform="translate(549,540)"/>
<path d="M0 0 C4.49069528 2.24534764 6.63282168 3.37324238 9 8 C9 9.32 9 10.64 9 12 C8.443125 11.29875 7.88625 10.5975 7.3125 9.875 C5.64909978 7.80698891 3.9655467 5.77346534 2.25 3.75 C0 1 0 1 0 0 Z " fill="#E8F1F9" transform="translate(455,368)"/>
<path d="M0 0 C0.33 0.99 0.66 1.98 1 3 C0.34 3 -0.32 3 -1 3 C-1 5.64 -1 8.28 -1 11 C-3.32472205 8.14693203 -4.7508258 5.45925163 -6 2 C-3.50907189 0.75453595 -2.58919267 1.2232422 0 2 C0 1.34 0 0.68 0 0 Z " fill="#182D6B" transform="translate(455,737)"/>
<path d="M0 0 C0.99 0 1.98 0 3 0 C3 0.66 3 1.32 3 2 C3.99 2.33 4.98 2.66 6 3 C6 4.98 6 6.96 6 9 C5.34 9 4.68 9 4 9 C0 2.25 0 2.25 0 0 Z " fill="#142A61" transform="translate(415,673)"/>
<path d="M0 0 C1.485 0.99 1.485 0.99 3 2 C3 2.66 3 3.32 3 4 C3.99 4.33 4.98 4.66 6 5 C6 7.31 6 9.62 6 12 C3.32289809 10.66144904 3.04870906 9.27941912 1.875 6.5625 C1.52179687 5.75941406 1.16859375 4.95632813 0.8046875 4.12890625 C0 2 0 2 0 0 Z " fill="#22A2CF" transform="translate(592,564)"/>
<path d="M0 0 C0.99 0.33 1.98 0.66 3 1 C2.98839844 1.58007812 2.97679687 2.16015625 2.96484375 2.7578125 C2.91237826 7.2998246 3.08248937 11.52713569 4 16 C0.41624224 12.41624224 0.07612239 6.86499859 -0.125 1.9375 C-0.08375 1.298125 -0.0425 0.65875 0 0 Z " fill="#18A4DD" transform="translate(579,528)"/>
<path d="M0 0 C0.33 0 0.66 0 1 0 C1 2.64 1 5.28 1 8 C0.01 8 -0.98 8 -2 8 C-2.33 9.32 -2.66 10.64 -3 12 C-3.66 12 -4.32 12 -5 12 C-3.68938409 7.76570244 -2.05643741 3.92592596 0 0 Z " fill="#DAF9FE" transform="translate(725,460)"/>
<path d="M0 0 C-0.99 0 -1.98 0 -3 0 C-3.33 0.99 -3.66 1.98 -4 3 C-9.94 3.495 -9.94 3.495 -16 4 C-13.32856215 2.66428108 -10.76007526 1.41760826 -8 0.3125 C-7.34 0.04050781 -6.68 -0.23148437 -6 -0.51171875 C-3.65456399 -1.08433496 -2.26562596 -0.75352292 0 0 Z " fill="#31ACDB" transform="translate(668,311)"/>
<path d="M0 0 C2 0 4 0 6 0 C4.86500606 3.29148243 4.00716624 3.9959869 0.875 5.75 C-0.548125 6.36875 -0.548125 6.36875 -2 7 C-1.34 4.69 -0.68 2.38 0 0 Z " fill="#132B69" transform="translate(549,771)"/>
<path d="M0 0 C3.01840125 4.52760188 4.24339186 6.52368308 4 12 C-2 4.28571429 -2 4.28571429 -2 1 C-1.34 0.67 -0.68 0.34 0 0 Z " fill="#132863" transform="translate(361,564)"/>
<path d="M0 0 C1.2065625 0.0309375 1.2065625 0.0309375 2.4375 0.0625 C2.4375 1.7125 2.4375 3.3625 2.4375 5.0625 C1.4475 5.0625 0.4575 5.0625 -0.5625 5.0625 C-0.8925 5.7225 -1.2225 6.3825 -1.5625 7.0625 C-2.2225 5.0825 -2.8825 3.1025 -3.5625 1.0625 C-2.5625 0.0625 -2.5625 0.0625 0 0 Z " fill="#F0F6F5" transform="translate(549.5625,530.9375)"/>
<path d="M0 0 C0.33 1.32 0.66 2.64 1 4 C0.34 4 -0.32 4 -1 4 C-1.12375 4.7425 -1.2475 5.485 -1.375 6.25 C-1.95486701 8.80141485 -2.73708739 10.7267573 -4 13 C-4.66 13 -5.32 13 -6 13 C-4.75696561 7.82069003 -3.14512215 4.29833361 0 0 Z " fill="#C1F2F9" transform="translate(698,512)"/>
<path d="M0 0 C2.64465038 3.1254959 3.84414715 6.08788267 5 10 C4.01 10.33 3.02 10.66 2 11 C2 9.35 2 7.7 2 6 C0.0745356 4.8509288 0.0745356 4.8509288 -2 5 C-1.34 3.35 -0.68 1.7 0 0 Z " fill="#162D64" transform="translate(499,442)"/>
<path d="M0 0 C3 0 3 0 4.6875 1 C6.7965 4.21371429 6.18614585 7.21503429 6 11 C3.13546142 7.58983503 1.65296434 4.09305456 0 0 Z " fill="#11285F" transform="translate(262,378)"/>
<path d="M0 0 C0 0.66 0 1.32 0 2 C-1.93467942 2.83986084 -3.87285129 3.67168027 -5.8125 4.5 C-7.43091797 5.19609375 -7.43091797 5.19609375 -9.08203125 5.90625 C-12 7 -12 7 -15 7 C-11.19791273 3.69383716 -5.16418515 0 0 0 Z " fill="#2DA6D3" transform="translate(652,315)"/>
<path d="M0 0 C0.66 0 1.32 0 2 0 C0.50829734 4.9723422 -1.60457417 9.41845739 -4 14 C-5.33623836 9.99128491 -4.38227053 7.93947102 -3 4 C-1.5 1.5625 -1.5 1.5625 0 0 Z " fill="#24A2D0" transform="translate(653,593)"/>
<path d="M0 0 C2.95929119 2.75520215 5.03681826 5.46627288 7 9 C6.34 9.66 5.68 10.32 5 11 C1.7089159 7.39042389 0.45336079 4.87362847 0 0 Z " fill="#1E356B" transform="translate(577,586)"/>
<path d="M0 0 C2.74792483 3.40219265 6 7.48464588 6 12 C4.125 11.375 4.125 11.375 2 10 C0.42687589 6.38181456 0 3.97906647 0 0 Z " fill="#152E64" transform="translate(490,424)"/>
<path d="M0 0 C0.33 0 0.66 0 1 0 C1 1.65 1 3.3 1 5 C0.34 5 -0.32 5 -1 5 C-1.33 7.31 -1.66 9.62 -2 12 C-2.99 12 -3.98 12 -5 12 C-3.68938409 7.76570244 -2.05643741 3.92592596 0 0 Z " fill="#CAF5FC" transform="translate(757,398)"/>
<path d="M0 0 C1.79379098 0.44994757 3.58498928 0.91024143 5.375 1.375 C6.37273437 1.63023437 7.37046875 1.88546875 8.3984375 2.1484375 C11 3 11 3 13 5 C8.71 4.67 4.42 4.34 0 4 C0 2.68 0 1.36 0 0 Z " fill="#1C316A" transform="translate(384,322)"/>
<path d="M0 0 C0.6875 1.75 0.6875 1.75 1 4 C-0.3125 5.9375 -0.3125 5.9375 -2 8 C-2.71162443 9.64797236 -3.39031953 11.31165408 -4 13 C-4.66 13 -5.32 13 -6 13 C-4.58707905 8.1725201 -2.57025846 4.2837641 0 0 Z " fill="#CAF5FC" transform="translate(710,489)"/>
<path d="M0 0 C0.33 0 0.66 0 1 0 C1 1.65 1 3.3 1 5 C0.34 5 -0.32 5 -1 5 C-1 5.66 -1 6.32 -1 7 C-2.32 7.33 -3.64 7.66 -5 8 C-5 8.66 -5 9.32 -5 10 C-5.66 9.67 -6.32 9.34 -7 9 C-5.85793642 7.49712782 -4.71125043 5.99776716 -3.5625 4.5 C-2.92441406 3.6646875 -2.28632812 2.829375 -1.62890625 1.96875 C-0.82259766 0.99421875 -0.82259766 0.99421875 0 0 Z " fill="#34ADD5" transform="translate(607,344)"/>
<path d="M0 0 C2.96404505 2.80804268 5.44499019 5.18315774 7 9 C5.68 9 4.36 9 3 9 C3 8.01 3 7.02 3 6 C2.34 6 1.68 6 1 6 C0.67 4.02 0.34 2.04 0 0 Z " fill="#D2F7FA" transform="translate(620,615)"/>
<path d="M0 0 C0.66 0.33 1.32 0.66 2 1 C-0.31 5.29 -2.62 9.58 -5 14 C-6.10652097 10.68043709 -5.95237748 10.11203583 -4.75 7 C-4.49734375 6.319375 -4.2446875 5.63875 -3.984375 4.9375 C-2.92652842 2.85538927 -1.72779885 1.55307761 0 0 Z " fill="#2EA1CC" transform="translate(688,528)"/>
<path d="M0 0 C-1.875 5.75 -1.875 5.75 -3 8 C-5.0625 8.625 -5.0625 8.625 -7 9 C-7 8.34 -7 7.68 -7 7 C-6.01 7 -5.02 7 -4 7 C-4.33 5.02 -4.66 3.04 -5 1 C-2 0 -2 0 0 0 Z " fill="#18A4DC" transform="translate(729,452)"/>
<path d="M0 0 C2.31 1.98 4.62 3.96 7 6 C4.37886292 6 2.49064888 5.68707555 0 5 C-0.5625 3.0625 -0.5625 3.0625 -1 1 C-0.67 0.67 -0.34 0.34 0 0 Z " fill="#09215A" transform="translate(595,608)"/>
<path d="M0 0 C2.32472205 2.85306797 3.7508258 5.54074837 5 9 C3.125 8.6875 3.125 8.6875 1 8 C-1 5 -1 5 -0.625 2.3125 C-0.41875 1.549375 -0.2125 0.78625 0 0 Z " fill="#DFECF3" transform="translate(265,385)"/>
<path d="M0 0 C0.66 0 1.32 0 2 0 C0.74194623 4.50802601 -0.90407165 7.4912812 -4 11 C-3.67 8.69 -3.34 6.38 -3 4 C-2.34 4 -1.68 4 -1 4 C-0.67 2.68 -0.34 1.36 0 0 Z " fill="#1B2F60" transform="translate(611,673)"/>
<path d="M0 0 C3.33333333 1.66666667 6.66666667 3.33333333 10 5 C7.00112135 5.96392528 4.91185125 6.35886391 2 5 C0.75 2.4375 0.75 2.4375 0 0 Z " fill="#1E3363" transform="translate(612,623)"/>
<path d="M0 0 C-0.66 1.65 -1.32 3.3 -2 5 C-3.32 5 -4.64 5 -6 5 C-6.33 3.68 -6.66 2.36 -7 1 C-2.25 0 -2.25 0 0 0 Z " fill="#15A6D8" transform="translate(639,624)"/>
<path d="M0 0 C2.5625 2.1875 2.5625 2.1875 5 5 C4.8125 7.8125 4.8125 7.8125 4 10 C1.67527795 7.14693203 0.2491742 4.45925163 -1 1 C-0.67 0.67 -0.34 0.34 0 0 Z " fill="#0F2660" transform="translate(373,589)"/>
<path d="M0 0 C2.74792483 3.40219265 6 7.48464588 6 12 C5.34 12 4.68 12 4 12 C2.95107762 10.36368108 1.95093297 8.69514137 1 7 C0.67 6.67 0.34 6.34 0 6 C-0.04080783 4.00041636 -0.04254356 1.99954746 0 0 Z " fill="#C5F1FC" transform="translate(593,568)"/>
<path d="M0 0 C3.00609963 1.00203321 4.06176821 1.60028446 6 4 C6 4.99 6 5.98 6 7 C5.01 7 4.02 7 3 7 C2.01 4.69 1.02 2.38 0 0 Z M6 2 C6.99 2.495 6.99 2.495 8 3 C7.01 3.495 7.01 3.495 6 4 C6 3.34 6 2.68 6 2 Z " fill="#1B3169" transform="translate(327,504)"/>
<path d="M0 0 C0.93423645 3.01031744 1.04449911 3.86650268 0 7 C-0.66 7 -1.32 7 -2 7 C-2 7.99 -2 8.98 -2 10 C-2.99 10.33 -3.98 10.66 -5 11 C-3.55049545 7.2089881 -1.84827434 3.6125362 0 0 Z " fill="#C9F6FB" transform="translate(773,368)"/>
<path d="M0 0 C0.99 0.33 1.98 0.66 3 1 C1.35 3.64 -0.3 6.28 -2 9 C-3 5 -3 5 -1.5625 2.25 C-1.046875 1.5075 -0.53125 0.765 0 0 Z " fill="#D1F9FD" transform="translate(589,364)"/>
<path d="M0 0 C1.98 1.65 3.96 3.3 6 5 C3.50935112 5.68707555 1.62113708 6 -1 6 C-0.67 4.02 -0.34 2.04 0 0 Z " fill="#F2F7FC" transform="translate(466,767)"/>
<path d="M0 0 C0.98726527 2.66561622 1.0275526 3.90126985 0.25 6.6875 C-1 9 -1 9 -4 10 C-3.43454163 6.04179141 -2.19097652 3.3340947 0 0 Z " fill="#CFF5FC" transform="translate(639,624)"/>
<path d="M0 0 C2 1.3125 2 1.3125 4 3 C4 3.99 4 4.98 4 6 C3.01 6 2.02 6 1 6 C1 6.66 1 7.32 1 8 C0.34 8 -0.32 8 -1 8 C-1.33 7.01 -1.66 6.02 -2 5 C-1.34 5 -0.68 5 0 5 C0 3.35 0 1.7 0 0 Z " fill="#0C286A" transform="translate(299,441)"/>
<path d="M0 0 C1.65 0.33 3.3 0.66 5 1 C5.33 1.99 5.66 2.98 6 4 C3.69 4.33 1.38 4.66 -1 5 C-0.67 3.35 -0.34 1.7 0 0 Z " fill="#07205A" transform="translate(379,321)"/>
<path d="M0 0 C0.33 0.66 0.66 1.32 1 2 C3.02463255 2.65213292 3.02463255 2.65213292 5 3 C5 4.65 5 6.3 5 8 C2.5 5.6875 2.5 5.6875 0 3 C0 2.01 0 1.02 0 0 Z " fill="#172B60" transform="translate(465,762)"/>
<path d="M0 0 C0.99 0 1.98 0 3 0 C3 0.99 3 1.98 3 3 C3.99 3.33 4.98 3.66 6 4 C6 4.99 6 5.98 6 7 C4.125 6.875 4.125 6.875 2 6 C0.75 2.9375 0.75 2.9375 0 0 Z " fill="#FAFCFD" transform="translate(624,624)"/>
<path d="M0 0 C0.99 0.99 1.98 1.98 3 3 C2.67 3.66 2.34 4.32 2 5 C-0.0625 5.625 -0.0625 5.625 -2 6 C-2 4.68 -2 3.36 -2 2 C-1.34 2 -0.68 2 0 2 C0 1.34 0 0.68 0 0 Z " fill="#E5F7FA" transform="translate(612,602)"/>
<path d="M0 0 C1.89213369 2.38573379 3.02391783 4.07175348 4 7 C2.68 7.33 1.36 7.66 0 8 C-0.38063221 5.6739143 -0.71269945 3.33944736 -1 1 C-0.67 0.67 -0.34 0.34 0 0 Z " fill="#1A316C" transform="translate(545,532)"/>
<path d="M0 0 C0.6875 1.625 0.6875 1.625 1 4 C-0.4375 7.25 -0.4375 7.25 -2 10 C-2.66 10 -3.32 10 -4 10 C-2.8905928 6.51329166 -1.73662334 3.22515763 0 0 Z " fill="#D1F5FD" transform="translate(715,479)"/>
<path d="M0 0 C2.50037734 2.17424117 3.43628586 3.73045798 4 7 C3.38125 6.649375 2.7625 6.29875 2.125 5.9375 C1.073125 5.4734375 1.073125 5.4734375 0 5 C-0.99 5.495 -0.99 5.495 -2 6 C-1.34 4.02 -0.68 2.04 0 0 Z " fill="#E0E6F2" transform="translate(275,405)"/>
<path d="M0 0 C1.32 0.66 2.64 1.32 4 2 C3.67 3.65 3.34 5.3 3 7 C2.34 7 1.68 7 1 7 C1 6.01 1 5.02 1 4 C0.34 4 -0.32 4 -1 4 C-0.67 2.68 -0.34 1.36 0 0 Z " fill="#1EA5DD" transform="translate(771,361)"/>
<path d="M0 0 C-2.31 1.65 -4.62 3.3 -7 5 C-6.625 2.5625 -6.625 2.5625 -6 0 C-4 -1 -4 -1 0 0 Z " fill="#D7F6FD" transform="translate(624,330)"/>
<path d="M0 0 C0 0.33 0 0.66 0 1 C-1.41377782 1.36552803 -2.83120576 1.71695495 -4.25 2.0625 C-5.03890625 2.25972656 -5.8278125 2.45695312 -6.640625 2.66015625 C-9.10394822 3.01497267 -10.65604132 2.76877544 -13 2 C-8.22169095 -0.91360308 -5.44893869 -1.19876651 0 0 Z " fill="#DDFBFB" transform="translate(677,307)"/>
<path d="M0 0 C1 3 1 3 0.22265625 5.04296875 C-0.16019531 5.75066406 -0.54304687 6.45835937 -0.9375 7.1875 C-1.31777344 7.90292969 -1.69804688 8.61835937 -2.08984375 9.35546875 C-2.54037109 10.16951172 -2.54037109 10.16951172 -3 11 C-3.66 11 -4.32 11 -5 11 C-3.55049545 7.2089881 -1.84827434 3.6125362 0 0 Z " fill="#D5E4F1" transform="translate(631,639)"/>
<path d="M0 0 C4.42857143 5.14285714 4.42857143 5.14285714 5 9 C3.0625 8.4375 3.0625 8.4375 1 7 C0.25 3.375 0.25 3.375 0 0 Z " fill="#CEF7FE" transform="translate(603,587)"/>
<path d="M0 0 C0.33 0.66 0.66 1.32 1 2 C0.00390625 4.1640625 0.00390625 4.1640625 -1.4375 6.625 C-1.91058594 7.44226563 -2.38367188 8.25953125 -2.87109375 9.1015625 C-3.24363281 9.72804688 -3.61617187 10.35453125 -4 11 C-5 8 -5 8 -3.6875 4.375 C-2 1 -2 1 0 0 Z " fill="#40B3D3" transform="translate(670,564)"/>
<path d="M0 0 C1.32 0.33 2.64 0.66 4 1 C4 2.98 4 4.96 4 7 C3.34 7 2.68 7 2 7 C0.5393715 4.35261084 0 3.10551666 0 0 Z " fill="#0D255F" transform="translate(305,459)"/>
<path d="M0 0 C1.1577506 3.47325181 1.06866652 6.36067448 1 10 C0.34 10 -0.32 10 -1 10 C-2.25 3.375 -2.25 3.375 0 0 Z " fill="#21A3D7" transform="translate(591,365)"/>
<path d="M0 0 C0.66 0.33 1.32 0.66 2 1 C1.34 2.98 0.68 4.96 0 7 C-0.66 7 -1.32 7 -2 7 C-2.125 4.625 -2.125 4.625 -2 2 C-1.34 1.34 -0.68 0.68 0 0 Z " fill="#132A62" transform="translate(605,683)"/>
<path d="M0 0 C1.37562854 1.28965176 2.70766393 2.62689293 4 4 C4 4.66 4 5.32 4 6 C4.99 6 5.98 6 7 6 C6.67 6.99 6.34 7.98 6 9 C0.42857143 3.85714286 0.42857143 3.85714286 0 0 Z " fill="#2CA4D5" transform="translate(629,623)"/>
<path d="M0 0 C1.98 0.66 3.96 1.32 6 2 C5.67 3.32 5.34 4.64 5 6 C4.01 5.67 3.02 5.34 2 5 C0.8125 2.4375 0.8125 2.4375 0 0 Z " fill="#102660" transform="translate(377,600)"/>
<path d="M0 0 C1.32 0.33 2.64 0.66 4 1 C4.33 2.98 4.66 4.96 5 7 C4.34 7 3.68 7 3 7 C2.01 4.69 1.02 2.38 0 0 Z " fill="#192B63" transform="translate(337,523)"/>
<path d="M0 0 C2.875 -0.125 2.875 -0.125 6 0 C6.66 0.66 7.32 1.32 8 2 C5.6875 3.125 5.6875 3.125 3 4 C2.01 3.34 1.02 2.68 0 2 C0 1.34 0 0.68 0 0 Z " fill="#0BA2EB" transform="translate(688,310)"/>
<path d="M0 0 C0 0.99 0 1.98 0 3 C-0.99 3.495 -0.99 3.495 -2 4 C-2.66 3.67 -3.32 3.34 -4 3 C-4.33 3.66 -4.66 4.32 -5 5 C-5.66 4.01 -6.32 3.02 -7 2 C-4.69 1.34 -2.38 0.68 0 0 Z " fill="#061D60" transform="translate(557,768)"/>
<path d="M0 0 C2 1 2 1 3.125 4.0625 C3.41375 5.031875 3.7025 6.00125 4 7 C3.01 6.67 2.02 6.34 1 6 C1 5.34 1 4.68 1 4 C0.01 3.67 -0.98 3.34 -2 3 C-1.34 2.01 -0.68 1.02 0 0 Z " fill="#E4ECF6" transform="translate(453,748)"/>
<path d="M0 0 C0.66 0 1.32 0 2 0 C0.7508258 3.45925163 -0.67527795 6.14693203 -3 9 C-2.67 6.69 -2.34 4.38 -2 2 C-1.34 2 -0.68 2 0 2 C0 1.34 0 0.68 0 0 Z " fill="#223767" transform="translate(590,713)"/>
<path d="M0 0 C0.66 1.32 1.32 2.64 2 4 C1.01 4.495 1.01 4.495 0 5 C-0.33 5.99 -0.66 6.98 -1 8 C-1.66 7.67 -2.32 7.34 -3 7 C-1.125 1.125 -1.125 1.125 0 0 Z " fill="#D4DFEC" transform="translate(610,679)"/>
<path d="M0 0 C2.15377564 2.62198774 3.40072174 4.64404172 4 8 C3.01 7.67 2.02 7.34 1 7 C1 6.34 1 5.68 1 5 C0.34 4.67 -0.32 4.34 -1 4 C-0.67 2.68 -0.34 1.36 0 0 Z " fill="#D9E3F1" transform="translate(306,464)"/>
<path d="M0 0 C0.66 0.66 1.32 1.32 2 2 C1.34 3.65 0.68 5.3 0 7 C-0.99 5.68 -1.98 4.36 -3 3 C-2.01 2.01 -1.02 1.02 0 0 Z " fill="#E6EEF8" transform="translate(500,435)"/>
<path d="M0 0 C1.98 1.65 3.96 3.3 6 5 C4.02 5.99 4.02 5.99 2 7 C0.5393715 4.35261084 0 3.10551666 0 0 Z " fill="#182E67" transform="translate(447,361)"/>
</svg>
